# xmcd CD database file
#
# Track frame offsets:
#	150
#	16999
#	30658
#	46146
#	61456
#	79397
#	95989
#	121180
#	145016
#	165456
#	181632
#	196398
#	209400
#	229375
#	248075
#
# Disc length: 3529 seconds
#
# Revision: 0
# Processed by: cddbd v1.5.2PL0 Copyright (c) Steve Scherf et al.
# Submitted via: CDex 1.70beta2
#
DISCID=c90dc70f
DTITLE=Verschiedene - Dinner Tunes Vol. II
DYEAR=1900
DGENRE=Jazz
TTITLE0=Cheek To Cheek
TTITLE1=That Ole Devil Called Love
TTITLE2=My Baby Just Cares For Me
TTITLE3=It´s A Good Life
TTITLE4=Kann Denn Liebe Sünde Sein
TTITLE5=Shout
TTITLE6=New York State Of Mind
TTITLE7=Close Your Eyes
TTITLE8=TThe More I See
TTITLE9=Don´t You Want Me
TTITLE10=Summertime
TTITLE11=Route 66
TTITLE12=My Hunger Hurts
TTITLE13=Wishing On A Star
TTITLE14=Missing
EXTD=
EXTT0=
EXTT1=
EXTT2=
EXTT3=
EXTT4=
EXTT5=
EXTT6=
EXTT7=
EXTT8=
EXTT9=
EXTT10=
EXTT11=
EXTT12=
EXTT13=
EXTT14=
PLAYORDER=
